<mxfile host="Electron" agent="Mozilla/5.0 (Windows NT 10.0; Win64; x64) AppleWebKit/537.36 (KHTML, like Gecko) draw.io/23.1.5 Chrome/120.0.6099.109 Electron/28.1.0 Safari/537.36" modified="2024-09-01T11:09:01.289Z" version="23.1.5" etag="f8tUkU29tIsgt12l8Pai" type="device">
  <diagram name="Page-1" id="efa7a0a1-bf9b-a30e-e6df-94a7791c09e9">
    <mxGraphModel dx="1116" dy="589" grid="1" gridSize="10" guides="1" tooltips="1" connect="1" arrows="1" fold="1" page="1" pageScale="1" pageWidth="826" pageHeight="1169" background="none" math="0" shadow="0">
      <root>
        <mxCell id="0" />
        <mxCell id="1" parent="0" />
        <mxCell id="1DiMr5vrjVzIFSd2x-K9-119" value="package::Ceorses : Collaborative Execution of Astronomical Resources&amp;nbsp;" style="shape=folder;fontStyle=1;spacingTop=10;tabWidth=40;tabHeight=14;tabPosition=left;html=1;whiteSpace=wrap;" parent="1" vertex="1">
          <mxGeometry x="90" y="1089" width="2370" height="80" as="geometry" />
        </mxCell>
        <mxCell id="1DiMr5vrjVzIFSd2x-K9-120" value="&lt;p style=&quot;margin:0px;margin-top:4px;text-align:center;&quot;&gt;&lt;b&gt;User&lt;/b&gt;&lt;/p&gt;&lt;hr size=&quot;1&quot; style=&quot;border-style:solid;&quot;&gt;&lt;p style=&quot;margin:0px;margin-left:4px;&quot;&gt;+ FirstName: Name&lt;/p&gt;&lt;p style=&quot;margin:0px;margin-left:4px;&quot;&gt;+ LastName:&amp;nbsp;&lt;/p&gt;&lt;p style=&quot;margin:0px;margin-left:4px;&quot;&gt;+ UserName:&amp;nbsp;&lt;/p&gt;&lt;p style=&quot;margin:0px;margin-left:4px;&quot;&gt;+ Status:&amp;nbsp;&lt;/p&gt;&lt;p style=&quot;margin:0px;margin-left:4px;&quot;&gt;+ creationDate:&amp;nbsp;&lt;/p&gt;&lt;p style=&quot;margin:0px;margin-left:4px;&quot;&gt;+ ExpiryDate:&amp;nbsp;&lt;/p&gt;&lt;p style=&quot;margin:0px;margin-left:4px;&quot;&gt;+ LicenseRef:&amp;nbsp;&lt;/p&gt;&lt;p style=&quot;margin:0px;margin-left:4px;&quot;&gt;+ List&amp;lt;Observables&amp;gt;&lt;/p&gt;&lt;p style=&quot;margin:0px;margin-left:4px;&quot;&gt;+ email&lt;/p&gt;&lt;p style=&quot;margin:0px;margin-left:4px;&quot;&gt;+ telephone&lt;/p&gt;&lt;p style=&quot;margin:0px;margin-left:4px;&quot;&gt;&lt;br&gt;&lt;/p&gt;&lt;p style=&quot;margin:0px;margin-left:4px;&quot;&gt;&lt;br&gt;&lt;/p&gt;&lt;hr size=&quot;1&quot; style=&quot;border-style:solid;&quot;&gt;&lt;p style=&quot;margin:0px;margin-left:4px;&quot;&gt;+ method(): Type&lt;/p&gt;" style="verticalAlign=top;align=left;overflow=fill;html=1;whiteSpace=wrap;" parent="1" vertex="1">
          <mxGeometry x="110" y="1510" width="160" height="330" as="geometry" />
        </mxCell>
        <mxCell id="1DiMr5vrjVzIFSd2x-K9-121" value="&lt;p style=&quot;margin:0px;margin-top:4px;text-align:center;&quot;&gt;&lt;b&gt;Schedule&lt;/b&gt;&lt;/p&gt;&lt;hr size=&quot;1&quot; style=&quot;border-style:solid;&quot;&gt;&lt;p style=&quot;margin:0px;margin-left:4px;&quot;&gt;+ Name: String&lt;/p&gt;&lt;p style=&quot;margin:0px;margin-left:4px;&quot;&gt;+ Owner: user ID&lt;/p&gt;&lt;p style=&quot;margin:0px;margin-left:4px;&quot;&gt;+ creationDate:&amp;lt;dateTime&amp;gt;&lt;/p&gt;&lt;p style=&quot;margin:0px;margin-left:4px;&quot;&gt;+ ExpiryDate: &amp;lt;dateTime&amp;gt;&lt;/p&gt;&lt;hr size=&quot;1&quot; style=&quot;border-style:solid;&quot;&gt;&lt;p style=&quot;margin:0px;margin-left:4px;&quot;&gt;+ iterate(): observable&lt;/p&gt;" style="verticalAlign=top;align=left;overflow=fill;html=1;whiteSpace=wrap;" parent="1" vertex="1">
          <mxGeometry x="880" y="1280" width="160" height="200" as="geometry" />
        </mxCell>
        <mxCell id="1DiMr5vrjVzIFSd2x-K9-122" value="&lt;p style=&quot;margin:0px;margin-top:4px;text-align:center;&quot;&gt;&lt;b&gt;OTA&lt;/b&gt;&lt;/p&gt;&lt;hr size=&quot;1&quot; style=&quot;border-style:solid;&quot;&gt;&lt;p style=&quot;margin:0px;margin-left:4px;&quot;&gt;+ OTAType:&lt;/p&gt;&lt;p style=&quot;margin:0px;margin-left:4px;&quot;&gt;+ aperture:&amp;nbsp;&lt;/p&gt;&lt;p style=&quot;margin:0px;margin-left:4px;&quot;&gt;+ obstruction:&amp;nbsp;&lt;/p&gt;&lt;p style=&quot;margin:0px;margin-left:4px;&quot;&gt;+ fratio:&amp;nbsp;&lt;/p&gt;&lt;p style=&quot;margin:0px;margin-left:4px;&quot;&gt;+ spectralRange:&amp;nbsp;&lt;/p&gt;&lt;p style=&quot;margin:0px;margin-left:4px;&quot;&gt;+ DewHeater{}&lt;/p&gt;&lt;p style=&quot;margin:0px;margin-left:4px;&quot;&gt;+ CoverCalibrator{}:&lt;/p&gt;&lt;p style=&quot;margin:0px;margin-left:4px;&quot;&gt;+ ports: List&amp;lt;Port&amp;gt;&lt;/p&gt;&lt;p style=&quot;margin:0px;margin-left:4px;&quot;&gt;&lt;br&gt;&lt;/p&gt;&lt;p style=&quot;margin:0px;margin-left:4px;&quot;&gt;&lt;br&gt;&lt;/p&gt;&lt;hr size=&quot;1&quot; style=&quot;border-style:solid;&quot;&gt;&lt;p style=&quot;margin:0px;margin-left:4px;&quot;&gt;+ set/getOTAType(): Type&lt;/p&gt;&lt;p style=&quot;margin:0px;margin-left:4px;&quot;&gt;+ set/getAperture():&lt;/p&gt;&lt;p style=&quot;margin:0px;margin-left:4px;&quot;&gt;+ set/getObstructon():&amp;nbsp;&lt;/p&gt;&lt;p style=&quot;margin:0px;margin-left:4px;&quot;&gt;+ set/getFratio():&amp;nbsp;&lt;/p&gt;&lt;p style=&quot;margin:0px;margin-left:4px;&quot;&gt;+ set/getSpectralRange:&amp;nbsp;&lt;/p&gt;" style="verticalAlign=top;align=left;overflow=fill;html=1;whiteSpace=wrap;" parent="1" vertex="1">
          <mxGeometry x="1320" y="1980" width="160" height="260" as="geometry" />
        </mxCell>
        <mxCell id="1DiMr5vrjVzIFSd2x-K9-123" value="&lt;p style=&quot;margin:0px;margin-top:4px;text-align:center;&quot;&gt;&lt;b&gt;Camera&lt;/b&gt;&lt;/p&gt;&lt;hr size=&quot;1&quot; style=&quot;border-style:solid;&quot;&gt;&lt;p style=&quot;margin: 0px 0px 0px 4px;&quot;&gt;+ Name: String&lt;/p&gt;&lt;p style=&quot;margin: 0px 0px 0px 4px;&quot;&gt;+ hostname: FQDN&lt;/p&gt;&lt;p style=&quot;margin: 0px 0px 0px 4px;&quot;&gt;+ protocol: string&lt;/p&gt;&lt;hr size=&quot;1&quot; style=&quot;border-style:solid;&quot;&gt;&lt;p style=&quot;margin:0px;margin-left:4px;&quot;&gt;+ method(): Type&lt;/p&gt;" style="verticalAlign=top;align=left;overflow=fill;html=1;whiteSpace=wrap;" parent="1" vertex="1">
          <mxGeometry x="1887.5" y="2320" width="160" height="220" as="geometry" />
        </mxCell>
        <mxCell id="1DiMr5vrjVzIFSd2x-K9-124" value="&lt;p style=&quot;margin:0px;margin-top:4px;text-align:center;&quot;&gt;&lt;b&gt;Filter Wheel&lt;/b&gt;&lt;/p&gt;&lt;hr size=&quot;1&quot; style=&quot;border-style:solid;&quot;&gt;&lt;p style=&quot;margin: 0px 0px 0px 4px;&quot;&gt;+ Name: String&lt;/p&gt;&lt;p style=&quot;margin: 0px 0px 0px 4px;&quot;&gt;+ hostname: FQDN&lt;/p&gt;&lt;p style=&quot;margin: 0px 0px 0px 4px;&quot;&gt;+ protocol: string&lt;/p&gt;&lt;p style=&quot;margin: 0px 0px 0px 4px;&quot;&gt;+ port: integer&lt;br&gt;&lt;/p&gt;&lt;hr size=&quot;1&quot; style=&quot;border-style:solid;&quot;&gt;&lt;p style=&quot;margin:0px;margin-left:4px;&quot;&gt;+ method(): Type&lt;/p&gt;" style="verticalAlign=top;align=left;overflow=fill;html=1;whiteSpace=wrap;" parent="1" vertex="1">
          <mxGeometry x="2080" y="2320" width="160" height="220" as="geometry" />
        </mxCell>
        <mxCell id="1DiMr5vrjVzIFSd2x-K9-232" value="" style="edgeStyle=orthogonalEdgeStyle;rounded=0;orthogonalLoop=1;jettySize=auto;html=1;" parent="1" source="1DiMr5vrjVzIFSd2x-K9-125" target="1DiMr5vrjVzIFSd2x-K9-124" edge="1">
          <mxGeometry relative="1" as="geometry" />
        </mxCell>
        <mxCell id="1DiMr5vrjVzIFSd2x-K9-125" value="&lt;p style=&quot;margin:0px;margin-top:4px;text-align:center;&quot;&gt;&lt;b&gt;Filter&lt;/b&gt;&lt;/p&gt;&lt;hr size=&quot;1&quot; style=&quot;border-style:solid;&quot;&gt;&lt;p style=&quot;margin:0px;margin-left:4px;&quot;&gt;+ field: Type&lt;/p&gt;&lt;hr size=&quot;1&quot; style=&quot;border-style:solid;&quot;&gt;&lt;p style=&quot;margin:0px;margin-left:4px;&quot;&gt;+ method(): Type&lt;/p&gt;" style="verticalAlign=top;align=left;overflow=fill;html=1;whiteSpace=wrap;" parent="1" vertex="1">
          <mxGeometry x="2080" y="2590" width="160" height="90" as="geometry" />
        </mxCell>
        <mxCell id="1DiMr5vrjVzIFSd2x-K9-127" value="&lt;p style=&quot;margin:0px;margin-top:4px;text-align:center;&quot;&gt;&lt;i&gt;&amp;lt;&amp;lt;Interface&amp;gt;&amp;gt;&lt;/i&gt;&lt;br&gt;&lt;b&gt;Alpaca&lt;/b&gt;&lt;/p&gt;&lt;hr size=&quot;1&quot; style=&quot;border-style:solid;&quot;&gt;&lt;p style=&quot;margin:0px;margin-left:4px;&quot;&gt;No variables&lt;/p&gt;&lt;hr size=&quot;1&quot; style=&quot;border-style:solid;&quot;&gt;&lt;p style=&quot;margin:0px;margin-left:4px;&quot;&gt;+ Discover(Type): Type&lt;br&gt;+ Manage(Type, Type): Type&lt;/p&gt;&lt;p style=&quot;margin:0px;margin-left:4px;&quot;&gt;+ Descriptors()&lt;/p&gt;&lt;p style=&quot;margin:0px;margin-left:4px;&quot;&gt;+ Device functions..()&lt;/p&gt;" style="verticalAlign=top;align=left;overflow=fill;html=1;whiteSpace=wrap;" parent="1" vertex="1">
          <mxGeometry x="965" y="2715" width="190" height="185" as="geometry" />
        </mxCell>
        <mxCell id="1DiMr5vrjVzIFSd2x-K9-128" value="&lt;p style=&quot;margin:0px;margin-top:4px;text-align:center;&quot;&gt;&lt;b&gt;Mount&lt;/b&gt;&lt;/p&gt;&lt;hr size=&quot;1&quot; style=&quot;border-style:solid;&quot;&gt;&lt;p style=&quot;margin:0px;margin-left:4px;&quot;&gt;&lt;span style=&quot;background-color: initial;&quot;&gt;+ mountName:&amp;nbsp;&lt;/span&gt;&lt;br&gt;&lt;/p&gt;&lt;p style=&quot;margin:0px;margin-left:4px;&quot;&gt;&lt;span style=&quot;background-color: initial;&quot;&gt;+ OTAlist: List&amp;lt;OTA&amp;gt;&lt;/span&gt;&lt;br&gt;&lt;/p&gt;&lt;p style=&quot;margin:0px;margin-left:4px;&quot;&gt;&lt;span style=&quot;background-color: initial;&quot;&gt;+ HorizonMap: [int tuple]&lt;/span&gt;&lt;span style=&quot;background-color: initial;&quot;&gt;&amp;nbsp;&lt;/span&gt;&lt;br&gt;&lt;/p&gt;&lt;p style=&quot;margin:0px;margin-left:4px;&quot;&gt;&lt;span style=&quot;background-color: initial;&quot;&gt;+ Telescope{}&lt;/span&gt;&lt;/p&gt;&lt;hr size=&quot;1&quot; style=&quot;border-style:solid;&quot;&gt;&lt;p style=&quot;margin:0px;margin-left:4px;&quot;&gt;+ method(): Type&lt;/p&gt;" style="verticalAlign=top;align=left;overflow=fill;html=1;whiteSpace=wrap;" parent="1" vertex="1">
          <mxGeometry x="950" y="1970" width="160" height="290" as="geometry" />
        </mxCell>
        <mxCell id="1DiMr5vrjVzIFSd2x-K9-129" value="&lt;p style=&quot;margin:0px;margin-top:4px;text-align:center;&quot;&gt;&lt;b&gt;Config&lt;/b&gt;&lt;/p&gt;&lt;hr size=&quot;1&quot; style=&quot;border-style:solid;&quot;&gt;&lt;p style=&quot;margin:0px;margin-left:4px;&quot;&gt;+ storageType: Enum&lt;/p&gt;&lt;p style=&quot;margin:0px;margin-left:4px;&quot;&gt;+ connectioString: DB url&lt;/p&gt;&lt;p style=&quot;margin:0px;margin-left:4px;&quot;&gt;+ filename: string&lt;/p&gt;&lt;p style=&quot;margin:0px;margin-left:4px;&quot;&gt;&lt;br&gt;&lt;/p&gt;&lt;br&gt;&lt;hr size=&quot;1&quot; style=&quot;border-style:solid;&quot;&gt;&lt;p style=&quot;margin:0px;margin-left:4px;&quot;&gt;+ save():&amp;nbsp;&lt;/p&gt;&lt;p style=&quot;margin:0px;margin-left:4px;&quot;&gt;+ read():&lt;/p&gt;&lt;p style=&quot;margin:0px;margin-left:4px;&quot;&gt;+ importNina():&lt;/p&gt;&lt;p style=&quot;margin:0px;margin-left:4px;&quot;&gt;+&amp;nbsp;&lt;/p&gt;&lt;p style=&quot;margin:0px;margin-left:4px;&quot;&gt;&lt;br&gt;&lt;/p&gt;" style="verticalAlign=top;align=left;overflow=fill;html=1;whiteSpace=wrap;" parent="1" vertex="1">
          <mxGeometry x="110" y="1300" width="160" height="190" as="geometry" />
        </mxCell>
        <mxCell id="1DiMr5vrjVzIFSd2x-K9-130" value="&lt;p style=&quot;margin:0px;margin-top:4px;text-align:center;&quot;&gt;&lt;b&gt;Server&lt;/b&gt;&lt;/p&gt;&lt;hr size=&quot;1&quot; style=&quot;border-style:solid;&quot;&gt;&lt;p style=&quot;margin:0px;margin-left:4px;&quot;&gt;+ Name: String&lt;/p&gt;&lt;p style=&quot;margin:0px;margin-left:4px;&quot;&gt;+ hostname: string&lt;/p&gt;&lt;p style=&quot;margin:0px;margin-left:4px;&quot;&gt;+ port: number&lt;/p&gt;&lt;p style=&quot;margin:0px;margin-left:4px;&quot;&gt;+ protocol: string&lt;/p&gt;&lt;p style=&quot;margin:0px;margin-left:4px;&quot;&gt;+ List&amp;lt;User&amp;gt;:&lt;/p&gt;&lt;p style=&quot;margin:0px;margin-left:4px;&quot;&gt;+ List&amp;lt;Site&amp;gt;:&lt;/p&gt;&lt;p style=&quot;margin:0px;margin-left:4px;&quot;&gt;+ config&lt;/p&gt;&lt;p style=&quot;margin:0px;margin-left:4px;&quot;&gt;+ weatherAPIkey&lt;/p&gt;&lt;p style=&quot;margin:0px;margin-left:4px;&quot;&gt;&lt;br&gt;&lt;/p&gt;&lt;hr size=&quot;1&quot; style=&quot;border-style:solid;&quot;&gt;&lt;p style=&quot;margin:0px;margin-left:4px;&quot;&gt;+ RunExec():&amp;nbsp;&lt;/p&gt;&lt;p style=&quot;margin:0px;margin-left:4px;&quot;&gt;+ getSchedule(): list&lt;/p&gt;&lt;p style=&quot;margin:0px;margin-left:4px;&quot;&gt;+ Server():&amp;nbsp;&lt;/p&gt;&lt;p style=&quot;margin:0px;margin-left:4px;&quot;&gt;+ AddUser:&lt;/p&gt;&lt;p style=&quot;margin:0px;margin-left:4px;&quot;&gt;+ ModUser():&lt;/p&gt;&lt;p style=&quot;margin:0px;margin-left:4px;&quot;&gt;+ RequestObservation():&lt;/p&gt;&lt;p style=&quot;margin:0px;margin-left:4px;&quot;&gt;+ registerCallback()&lt;/p&gt;&lt;p style=&quot;margin:0px;margin-left:4px;&quot;&gt;+ test(scope):&lt;/p&gt;&lt;p style=&quot;margin:0px;margin-left:4px;&quot;&gt;+ get/SetConfig():&lt;/p&gt;&lt;p style=&quot;margin:0px;margin-left:4px;&quot;&gt;+ get/setWeatherAPIKey&lt;/p&gt;&lt;p style=&quot;margin:0px;margin-left:4px;&quot;&gt;&lt;br&gt;&lt;/p&gt;&lt;p style=&quot;margin:0px;margin-left:4px;&quot;&gt;&lt;br&gt;&lt;/p&gt;&lt;p style=&quot;margin:0px;margin-left:4px;&quot;&gt;&lt;br&gt;&lt;/p&gt;&lt;p style=&quot;margin:0px;margin-left:4px;&quot;&gt;&lt;br&gt;&lt;/p&gt;" style="verticalAlign=top;align=left;overflow=fill;html=1;whiteSpace=wrap;" parent="1" vertex="1">
          <mxGeometry x="330" y="1230" width="160" height="330" as="geometry" />
        </mxCell>
        <mxCell id="1DiMr5vrjVzIFSd2x-K9-131" value="&lt;p style=&quot;margin:0px;margin-top:4px;text-align:center;&quot;&gt;&lt;b&gt;Site&lt;/b&gt;&lt;/p&gt;&lt;hr size=&quot;1&quot; style=&quot;border-style:solid;&quot;&gt;&lt;p style=&quot;margin:0px;margin-left:4px;&quot;&gt;+ Name: string&lt;/p&gt;&lt;p style=&quot;margin:0px;margin-left:4px;&quot;&gt;+ Location: Lat:long&lt;/p&gt;&lt;p style=&quot;margin:0px;margin-left:4px;&quot;&gt;+ elevation: float&lt;/p&gt;&lt;p style=&quot;margin:0px;margin-left:4px;&quot;&gt;+ TZOffset&lt;/p&gt;&lt;p style=&quot;margin:0px;margin-left:4px;&quot;&gt;&lt;br&gt;&lt;/p&gt;&lt;hr size=&quot;1&quot; style=&quot;border-style:solid;&quot;&gt;&lt;p style=&quot;margin:0px;margin-left:4px;&quot;&gt;+ getSetName(): Type&lt;/p&gt;&lt;p style=&quot;margin:0px;margin-left:4px;&quot;&gt;+ getSetLocation( float lat, float long)&amp;nbsp;&lt;/p&gt;&lt;p style=&quot;margin:0px;margin-left:4px;&quot;&gt;+&amp;nbsp;&lt;/p&gt;" style="verticalAlign=top;align=left;overflow=fill;html=1;whiteSpace=wrap;" parent="1" vertex="1">
          <mxGeometry x="340" y="2010" width="160" height="190" as="geometry" />
        </mxCell>
        <mxCell id="1DiMr5vrjVzIFSd2x-K9-132" value="&lt;p style=&quot;margin:0px;margin-top:4px;text-align:center;&quot;&gt;&lt;b&gt;Observation&lt;/b&gt;&lt;/p&gt;&lt;hr size=&quot;1&quot; style=&quot;border-style:solid;&quot;&gt;&lt;p style=&quot;margin:0px;margin-left:4px;&quot;&gt;+ field: Name&lt;/p&gt;&lt;p style=&quot;margin:0px;margin-left:4px;&quot;&gt;+ field: Object&amp;nbsp;&lt;/p&gt;&lt;p style=&quot;margin:0px;margin-left:4px;&quot;&gt;+ field: locationRA&lt;/p&gt;&lt;p style=&quot;margin:0px;margin-left:4px;&quot;&gt;+ field: LocationDec&lt;/p&gt;&lt;p style=&quot;margin:0px;margin-left:4px;&quot;&gt;+ field: Date&lt;/p&gt;&lt;p style=&quot;margin:0px;margin-left:4px;&quot;&gt;+ field: scheduleId&lt;/p&gt;&lt;p style=&quot;margin:0px;margin-left:4px;&quot;&gt;+ field: Image format&lt;/p&gt;&lt;p style=&quot;margin:0px;margin-left:4px;&quot;&gt;+ field: location&lt;/p&gt;&lt;p style=&quot;margin:0px;margin-left:4px;&quot;&gt;&lt;br&gt;&lt;/p&gt;&lt;hr size=&quot;1&quot; style=&quot;border-style:solid;&quot;&gt;&lt;p style=&quot;margin:0px;margin-left:4px;&quot;&gt;+ method(): Reduce&lt;/p&gt;&lt;p style=&quot;margin:0px;margin-left:4px;&quot;&gt;+ method()&lt;/p&gt;" style="verticalAlign=top;align=left;overflow=fill;html=1;whiteSpace=wrap;" parent="1" vertex="1">
          <mxGeometry x="1690" y="1400" width="160" height="285" as="geometry" />
        </mxCell>
        <mxCell id="1DiMr5vrjVzIFSd2x-K9-135" value="&lt;p style=&quot;margin:0px;margin-top:4px;text-align:center;&quot;&gt;&lt;b&gt;Collimator&lt;/b&gt;&lt;/p&gt;&lt;hr size=&quot;1&quot; style=&quot;border-style:solid;&quot;&gt;&lt;p style=&quot;margin:0px;margin-left:4px;&quot;&gt;+ field: Type&lt;/p&gt;&lt;p style=&quot;margin: 0px 0px 0px 4px;&quot;&gt;+ Name: String&lt;/p&gt;&lt;p style=&quot;margin: 0px 0px 0px 4px;&quot;&gt;+ hostname: FQDN&lt;/p&gt;&lt;p style=&quot;margin: 0px 0px 0px 4px;&quot;&gt;+ protocol: string&lt;/p&gt;&lt;p style=&quot;margin: 0px 0px 0px 4px;&quot;&gt;+ port: integer&lt;/p&gt;&lt;p style=&quot;margin: 0px 0px 0px 4px;&quot;&gt;+ AdjustA&lt;br&gt;&lt;/p&gt;&lt;p style=&quot;margin: 0px 0px 0px 4px;&quot;&gt;+ AdjustB&lt;/p&gt;&lt;hr size=&quot;1&quot; style=&quot;border-style:solid;&quot;&gt;&lt;p style=&quot;margin:0px;margin-left:4px;&quot;&gt;+ moveA(int): boolean&lt;/p&gt;&lt;p style=&quot;margin:0px;margin-left:4px;&quot;&gt;+ moveB(int): boolean&lt;/p&gt;&lt;p style=&quot;margin:0px;margin-left:4px;&quot;&gt;&lt;br&gt;&lt;/p&gt;" style="verticalAlign=top;align=left;overflow=fill;html=1;whiteSpace=wrap;" parent="1" vertex="1">
          <mxGeometry x="1130" y="2320" width="160" height="220" as="geometry" />
        </mxCell>
        <mxCell id="1DiMr5vrjVzIFSd2x-K9-136" value="&lt;p style=&quot;margin:0px;margin-top:4px;text-align:center;&quot;&gt;&lt;b&gt;Observable&lt;/b&gt;&lt;/p&gt;&lt;hr size=&quot;1&quot; style=&quot;border-style:solid;&quot;&gt;&lt;p style=&quot;margin:0px;margin-left:4px;&quot;&gt;+ Name: String&lt;/p&gt;&lt;p style=&quot;margin:0px;margin-left:4px;&quot;&gt;&lt;span style=&quot;background-color: initial;&quot;&gt;+ AltIds[]: string&lt;/span&gt;&lt;/p&gt;&lt;p style=&quot;margin:0px;margin-left:4px;&quot;&gt;&lt;span style=&quot;background-color: initial;&quot;&gt;+ type: enum ObsType&lt;/span&gt;&lt;/p&gt;&lt;p style=&quot;margin:0px;margin-left:4px;&quot;&gt;+ priority:&amp;nbsp;&lt;/p&gt;&lt;p style=&quot;margin:0px;margin-left:4px;&quot;&gt;+ timeliness&lt;/p&gt;&lt;p style=&quot;margin:0px;margin-left:4px;&quot;&gt;+ sourceRef:&amp;nbsp;&lt;/p&gt;&lt;p style=&quot;margin:0px;margin-left:4px;&quot;&gt;+ frequency&lt;/p&gt;&lt;p style=&quot;margin:0px;margin-left:4px;&quot;&gt;+ Exposure&lt;/p&gt;&lt;p style=&quot;margin:0px;margin-left:4px;&quot;&gt;+ filter[]:&lt;/p&gt;&lt;p style=&quot;margin:0px;margin-left:4px;&quot;&gt;+ loopNum:&lt;/p&gt;&lt;p style=&quot;margin:0px;margin-left:4px;&quot;&gt;+ loopType:&lt;/p&gt;&lt;p style=&quot;margin:0px;margin-left:4px;&quot;&gt;+ totalImageCount:&lt;/p&gt;&lt;p style=&quot;margin:0px;margin-left:4px;&quot;&gt;+ MinSolarDistance&lt;/p&gt;&lt;p style=&quot;margin:0px;margin-left:4px;&quot;&gt;+ MinLunar distance&lt;/p&gt;&lt;p style=&quot;margin:0px;margin-left:4px;&quot;&gt;+ MinElevation&lt;/p&gt;&lt;p style=&quot;margin:0px;margin-left:4px;&quot;&gt;+ MinSkyBrightness: mv/sq&quot;&lt;/p&gt;&lt;p style=&quot;margin:0px;margin-left:4px;&quot;&gt;&amp;nbsp;&lt;/p&gt;&lt;p style=&quot;margin:0px;margin-left:4px;&quot;&gt;&lt;br&gt;&lt;/p&gt;&lt;hr size=&quot;1&quot; style=&quot;border-style:solid;&quot;&gt;&lt;p style=&quot;margin:0px;margin-left:4px;&quot;&gt;+ method(): Type&lt;/p&gt;" style="verticalAlign=top;align=left;overflow=fill;html=1;whiteSpace=wrap;" parent="1" vertex="1">
          <mxGeometry x="1310" y="1197.5" width="160" height="365" as="geometry" />
        </mxCell>
        <mxCell id="1DiMr5vrjVzIFSd2x-K9-137" value="&lt;p style=&quot;margin:0px;margin-top:4px;text-align:center;&quot;&gt;&lt;b&gt;Station&lt;/b&gt;&lt;/p&gt;&lt;hr size=&quot;1&quot; style=&quot;border-style:solid;&quot;&gt;&lt;p style=&quot;margin:0px;margin-left:4px;&quot;&gt;+ Name: String&lt;/p&gt;&lt;p style=&quot;margin:0px;margin-left:4px;&quot;&gt;+ Type: Enum&lt;/p&gt;&lt;p style=&quot;margin:0px;margin-left:4px;&quot;&gt;+ hostname: string&lt;/p&gt;&lt;p style=&quot;margin:0px;margin-left:4px;&quot;&gt;+ interfaceType: A/I&lt;/p&gt;&lt;p style=&quot;margin:0px;margin-left:4px;&quot;&gt;+ AltLimitLow: float&lt;/p&gt;&lt;p style=&quot;margin:0px;margin-left:4px;&quot;&gt;+ AltLimitHigh: float&lt;/p&gt;&lt;p style=&quot;margin:0px;margin-left:4px;&quot;&gt;&lt;span style=&quot;background-color: initial;&quot;&gt;+ BuildingType: Enum StationType&lt;/span&gt;&lt;br&gt;&lt;/p&gt;&lt;p style=&quot;margin:0px;margin-left:4px;&quot;&gt;+ FlatFielder: CoverCalibrator&lt;/p&gt;&lt;p style=&quot;margin:0px;margin-left:4px;&quot;&gt;+ MountList:List&amp;lt;Mounts&amp;gt;&lt;/p&gt;&lt;hr size=&quot;1&quot; style=&quot;border-style:solid;&quot;&gt;&lt;p style=&quot;margin:0px;margin-left:4px;&quot;&gt;+ method(): Type&lt;/p&gt;" style="verticalAlign=top;align=left;overflow=fill;html=1;whiteSpace=wrap;" parent="1" vertex="1">
          <mxGeometry x="590" y="2000" width="160" height="220" as="geometry" />
        </mxCell>
        <mxCell id="1DiMr5vrjVzIFSd2x-K9-138" value="&lt;p style=&quot;margin:0px;margin-top:4px;text-align:center;&quot;&gt;&lt;i&gt;&amp;lt;&amp;lt;Interface&amp;gt;&amp;gt;&lt;/i&gt;&lt;br&gt;&lt;b&gt;Indi&lt;/b&gt;&lt;/p&gt;&lt;hr size=&quot;1&quot; style=&quot;border-style:solid;&quot;&gt;&lt;p style=&quot;margin:0px;margin-left:4px;&quot;&gt;No variable&lt;/p&gt;&lt;hr size=&quot;1&quot; style=&quot;border-style:solid;&quot;&gt;&lt;p style=&quot;margin:0px;margin-left:4px;&quot;&gt;+ method1(Type): Type&lt;br&gt;+ method2(Type, Type): Type&lt;/p&gt;" style="verticalAlign=top;align=left;overflow=fill;html=1;whiteSpace=wrap;" parent="1" vertex="1">
          <mxGeometry x="1320" y="2710" width="190" height="140" as="geometry" />
        </mxCell>
        <mxCell id="1DiMr5vrjVzIFSd2x-K9-139" value="&lt;p style=&quot;margin:0px;margin-top:4px;text-align:center;&quot;&gt;&lt;b&gt;Port&lt;/b&gt;&lt;/p&gt;&lt;hr size=&quot;1&quot; style=&quot;border-style:solid;&quot;&gt;&lt;p style=&quot;margin:0px;margin-left:4px;&quot;&gt;+ portName: string&lt;/p&gt;&lt;p style=&quot;margin:0px;margin-left:4px;&quot;&gt;+ Focuser{}:&lt;/p&gt;&lt;p style=&quot;margin:0px;margin-left:4px;&quot;&gt;+ Camera{}:&lt;/p&gt;&lt;p style=&quot;margin:0px;margin-left:4px;&quot;&gt;+ FilterWheel&lt;/p&gt;&lt;p style=&quot;margin:0px;margin-left:4px;&quot;&gt;+ &amp;lt;&amp;lt;Guider&amp;gt;&amp;gt;;&lt;/p&gt;&lt;p style=&quot;margin:0px;margin-left:4px;&quot;&gt;+ isGuider: boolean&lt;/p&gt;&lt;p style=&quot;margin:0px;margin-left:4px;&quot;&gt;+ guideHostname&lt;/p&gt;&lt;p style=&quot;margin:0px;margin-left:4px;&quot;&gt;+ guidePortName&lt;/p&gt;&lt;p style=&quot;margin:0px;margin-left:4px;&quot;&gt;+ guideType: Enum&lt;/p&gt;&lt;hr size=&quot;1&quot; style=&quot;border-style:solid;&quot;&gt;&lt;p style=&quot;margin:0px;margin-left:4px;&quot;&gt;+ method(): Type&lt;/p&gt;" style="verticalAlign=top;align=left;overflow=fill;html=1;whiteSpace=wrap;" parent="1" vertex="1">
          <mxGeometry x="1887.5" y="1980" width="160" height="260" as="geometry" />
        </mxCell>
        <mxCell id="1DiMr5vrjVzIFSd2x-K9-145" value="" style="endArrow=diamondThin;endFill=0;endSize=24;html=1;rounded=0;" parent="1" source="1DiMr5vrjVzIFSd2x-K9-128" target="1DiMr5vrjVzIFSd2x-K9-137" edge="1">
          <mxGeometry width="160" relative="1" as="geometry">
            <mxPoint x="730" y="1860" as="sourcePoint" />
            <mxPoint x="890" y="1860" as="targetPoint" />
          </mxGeometry>
        </mxCell>
        <mxCell id="WeDQ7fZM85iE008-B1UC-1" value="1..N" style="edgeLabel;html=1;align=center;verticalAlign=middle;resizable=0;points=[];" vertex="1" connectable="0" parent="1DiMr5vrjVzIFSd2x-K9-145">
          <mxGeometry x="0.0739" y="1" relative="1" as="geometry">
            <mxPoint y="-1" as="offset" />
          </mxGeometry>
        </mxCell>
        <mxCell id="1DiMr5vrjVzIFSd2x-K9-147" value="" style="endArrow=block;dashed=1;endFill=0;endSize=12;html=1;rounded=0;edgeStyle=orthogonalEdgeStyle;" parent="1" source="1DiMr5vrjVzIFSd2x-K9-140" target="1DiMr5vrjVzIFSd2x-K9-127" edge="1">
          <mxGeometry width="160" relative="1" as="geometry">
            <mxPoint x="840" y="2340" as="sourcePoint" />
            <mxPoint x="1000" y="2340" as="targetPoint" />
            <Array as="points">
              <mxPoint x="1400" y="2680" />
              <mxPoint x="1055" y="2680" />
            </Array>
          </mxGeometry>
        </mxCell>
        <mxCell id="1DiMr5vrjVzIFSd2x-K9-151" value="" style="endArrow=diamondThin;endFill=1;endSize=24;html=1;rounded=0;" parent="1" source="1DiMr5vrjVzIFSd2x-K9-139" target="1DiMr5vrjVzIFSd2x-K9-122" edge="1">
          <mxGeometry width="160" relative="1" as="geometry">
            <mxPoint x="1420" y="1860" as="sourcePoint" />
            <mxPoint x="1720" y="2110" as="targetPoint" />
          </mxGeometry>
        </mxCell>
        <mxCell id="1DiMr5vrjVzIFSd2x-K9-209" value="1..N" style="edgeLabel;html=1;align=center;verticalAlign=middle;resizable=0;points=[];" parent="1DiMr5vrjVzIFSd2x-K9-151" vertex="1" connectable="0">
          <mxGeometry x="-0.458" y="1" relative="1" as="geometry">
            <mxPoint as="offset" />
          </mxGeometry>
        </mxCell>
        <mxCell id="1DiMr5vrjVzIFSd2x-K9-152" value="" style="endArrow=diamondThin;endFill=1;endSize=24;html=1;rounded=0;" parent="1" source="1DiMr5vrjVzIFSd2x-K9-122" target="1DiMr5vrjVzIFSd2x-K9-128" edge="1">
          <mxGeometry width="160" relative="1" as="geometry">
            <mxPoint x="1176.5" y="2124.83" as="sourcePoint" />
            <mxPoint x="1078.5" y="2124.83" as="targetPoint" />
          </mxGeometry>
        </mxCell>
        <mxCell id="1DiMr5vrjVzIFSd2x-K9-216" value="1..N" style="edgeLabel;html=1;align=center;verticalAlign=middle;resizable=0;points=[];" parent="1DiMr5vrjVzIFSd2x-K9-152" vertex="1" connectable="0">
          <mxGeometry x="-0.148" y="-3" relative="1" as="geometry">
            <mxPoint as="offset" />
          </mxGeometry>
        </mxCell>
        <mxCell id="1DiMr5vrjVzIFSd2x-K9-153" value="" style="endArrow=diamondThin;endFill=0;endSize=24;html=1;rounded=0;" parent="1" source="1DiMr5vrjVzIFSd2x-K9-125" target="1DiMr5vrjVzIFSd2x-K9-124" edge="1">
          <mxGeometry width="160" relative="1" as="geometry">
            <mxPoint x="1336" y="2430" as="sourcePoint" />
            <mxPoint x="1420" y="2340" as="targetPoint" />
          </mxGeometry>
        </mxCell>
        <mxCell id="1DiMr5vrjVzIFSd2x-K9-213" value="0..N" style="edgeLabel;html=1;align=center;verticalAlign=middle;resizable=0;points=[];" parent="1DiMr5vrjVzIFSd2x-K9-153" vertex="1" connectable="0">
          <mxGeometry x="-0.2954" y="-2" relative="1" as="geometry">
            <mxPoint as="offset" />
          </mxGeometry>
        </mxCell>
        <mxCell id="1DiMr5vrjVzIFSd2x-K9-156" value="&lt;p style=&quot;margin:0px;margin-top:4px;text-align:center;&quot;&gt;&lt;b&gt;Focuser&lt;/b&gt;&lt;/p&gt;&lt;hr size=&quot;1&quot; style=&quot;border-style:solid;&quot;&gt;&lt;p style=&quot;margin: 0px 0px 0px 4px;&quot;&gt;+ Name: String&lt;/p&gt;&lt;p style=&quot;margin: 0px 0px 0px 4px;&quot;&gt;+ hostname: FQDN&lt;/p&gt;&lt;p style=&quot;margin: 0px 0px 0px 4px;&quot;&gt;+ protocol: string&lt;/p&gt;&lt;p style=&quot;margin: 0px 0px 0px 4px;&quot;&gt;+ port: integer&lt;/p&gt;&lt;hr size=&quot;1&quot; style=&quot;border-style:solid;&quot;&gt;&lt;p style=&quot;margin:0px;margin-left:4px;&quot;&gt;+ method(): Type&lt;/p&gt;" style="verticalAlign=top;align=left;overflow=fill;html=1;whiteSpace=wrap;" parent="1" vertex="1">
          <mxGeometry x="1690" y="2320" width="160" height="220" as="geometry" />
        </mxCell>
        <mxCell id="1DiMr5vrjVzIFSd2x-K9-140" value="&lt;p style=&quot;margin:0px;margin-top:4px;text-align:center;&quot;&gt;&lt;b&gt;CoverCalibrator&lt;/b&gt;&lt;/p&gt;&lt;hr size=&quot;1&quot; style=&quot;border-style:solid;&quot;&gt;&lt;p style=&quot;margin:0px;margin-left:4px;&quot;&gt;&lt;span style=&quot;background-color: initial;&quot;&gt;+ Name: String&lt;/span&gt;&lt;br&gt;&lt;/p&gt;&lt;p style=&quot;margin: 0px 0px 0px 4px;&quot;&gt;+ hostname: FQDN&lt;/p&gt;&lt;p style=&quot;margin: 0px 0px 0px 4px;&quot;&gt;+ protocol: string&lt;/p&gt;&lt;p style=&quot;margin: 0px 0px 0px 4px;&quot;&gt;+ port: integer&lt;/p&gt;&lt;hr size=&quot;1&quot; style=&quot;border-style:solid;&quot;&gt;&lt;p style=&quot;margin:0px;margin-left:4px;&quot;&gt;+ method(): Type&lt;/p&gt;" style="verticalAlign=top;align=left;overflow=fill;html=1;whiteSpace=wrap;" parent="1" vertex="1">
          <mxGeometry x="1320" y="2320" width="160" height="220" as="geometry" />
        </mxCell>
        <mxCell id="1DiMr5vrjVzIFSd2x-K9-160" value="&lt;p style=&quot;margin:0px;margin-top:4px;text-align:center;&quot;&gt;&lt;b&gt;Telescope&lt;/b&gt;&lt;/p&gt;&lt;hr size=&quot;1&quot; style=&quot;border-style:solid;&quot;&gt;&lt;p style=&quot;margin: 0px 0px 0px 4px;&quot;&gt;+ Name: String&lt;/p&gt;&lt;p style=&quot;margin: 0px 0px 0px 4px;&quot;&gt;+ hostname: FQDN&lt;/p&gt;&lt;p style=&quot;margin: 0px 0px 0px 4px;&quot;&gt;+ protocol: string&lt;/p&gt;&lt;p style=&quot;margin: 0px 0px 0px 4px;&quot;&gt;+ port: integer&lt;/p&gt;&lt;hr size=&quot;1&quot; style=&quot;border-style:solid;&quot;&gt;&lt;p style=&quot;margin:0px;margin-left:4px;&quot;&gt;+ method(): Type&lt;/p&gt;" style="verticalAlign=top;align=left;overflow=fill;html=1;whiteSpace=wrap;" parent="1" vertex="1">
          <mxGeometry x="950" y="2320" width="160" height="220" as="geometry" />
        </mxCell>
        <mxCell id="1DiMr5vrjVzIFSd2x-K9-166" value="&lt;p style=&quot;margin:0px;margin-top:4px;text-align:center;text-decoration:underline;&quot;&gt;&lt;b&gt;Horizon Map&lt;/b&gt;&lt;/p&gt;&lt;hr size=&quot;1&quot; style=&quot;border-style:solid;&quot;&gt;&lt;p style=&quot;margin:0px;margin-left:8px;&quot;&gt;field1 = value1&lt;br&gt;field2 = value2&lt;br&gt;field3 = value3&lt;/p&gt;" style="verticalAlign=top;align=left;overflow=fill;html=1;whiteSpace=wrap;" parent="1" vertex="1">
          <mxGeometry x="740" y="1850" width="160" height="90" as="geometry" />
        </mxCell>
        <mxCell id="1DiMr5vrjVzIFSd2x-K9-167" value="Use" style="endArrow=open;endSize=12;dashed=1;html=1;rounded=0;" parent="1" source="1DiMr5vrjVzIFSd2x-K9-128" target="1DiMr5vrjVzIFSd2x-K9-160" edge="1">
          <mxGeometry width="160" relative="1" as="geometry">
            <mxPoint x="560" y="2330" as="sourcePoint" />
            <mxPoint x="720" y="2330" as="targetPoint" />
          </mxGeometry>
        </mxCell>
        <mxCell id="1DiMr5vrjVzIFSd2x-K9-228" value="1..N" style="edgeLabel;html=1;align=center;verticalAlign=middle;resizable=0;points=[];" parent="1DiMr5vrjVzIFSd2x-K9-167" vertex="1" connectable="0">
          <mxGeometry x="-0.5206" y="1" relative="1" as="geometry">
            <mxPoint as="offset" />
          </mxGeometry>
        </mxCell>
        <mxCell id="1DiMr5vrjVzIFSd2x-K9-168" value="Use" style="endArrow=open;endSize=12;dashed=1;html=1;rounded=0;" parent="1" source="1DiMr5vrjVzIFSd2x-K9-122" target="1DiMr5vrjVzIFSd2x-K9-135" edge="1">
          <mxGeometry width="160" relative="1" as="geometry">
            <mxPoint x="670" y="2190" as="sourcePoint" />
            <mxPoint x="830" y="2190" as="targetPoint" />
          </mxGeometry>
        </mxCell>
        <mxCell id="1DiMr5vrjVzIFSd2x-K9-227" value="0..1" style="edgeLabel;html=1;align=center;verticalAlign=middle;resizable=0;points=[];" parent="1DiMr5vrjVzIFSd2x-K9-168" vertex="1" connectable="0">
          <mxGeometry x="-0.3724" y="-1" relative="1" as="geometry">
            <mxPoint as="offset" />
          </mxGeometry>
        </mxCell>
        <mxCell id="1DiMr5vrjVzIFSd2x-K9-169" value="Use" style="endArrow=open;endSize=12;dashed=1;html=1;rounded=0;" parent="1" source="1DiMr5vrjVzIFSd2x-K9-122" target="1DiMr5vrjVzIFSd2x-K9-140" edge="1">
          <mxGeometry width="160" relative="1" as="geometry">
            <mxPoint x="1230" y="2170" as="sourcePoint" />
            <mxPoint x="1390" y="2170" as="targetPoint" />
          </mxGeometry>
        </mxCell>
        <mxCell id="1DiMr5vrjVzIFSd2x-K9-225" value="0..1" style="edgeLabel;html=1;align=center;verticalAlign=middle;resizable=0;points=[];" parent="1DiMr5vrjVzIFSd2x-K9-169" vertex="1" connectable="0">
          <mxGeometry x="-0.2943" relative="1" as="geometry">
            <mxPoint as="offset" />
          </mxGeometry>
        </mxCell>
        <mxCell id="1DiMr5vrjVzIFSd2x-K9-170" value="Use" style="endArrow=open;endSize=12;dashed=1;html=1;rounded=0;" parent="1" source="1DiMr5vrjVzIFSd2x-K9-139" target="1DiMr5vrjVzIFSd2x-K9-156" edge="1">
          <mxGeometry width="160" relative="1" as="geometry">
            <mxPoint x="1700" y="2190" as="sourcePoint" />
            <mxPoint x="1860" y="2190" as="targetPoint" />
          </mxGeometry>
        </mxCell>
        <mxCell id="1DiMr5vrjVzIFSd2x-K9-210" value="1..1" style="edgeLabel;html=1;align=center;verticalAlign=middle;resizable=0;points=[];" parent="1DiMr5vrjVzIFSd2x-K9-170" vertex="1" connectable="0">
          <mxGeometry x="-0.2256" y="-1" relative="1" as="geometry">
            <mxPoint as="offset" />
          </mxGeometry>
        </mxCell>
        <mxCell id="1DiMr5vrjVzIFSd2x-K9-173" value="" style="endArrow=diamondThin;endFill=0;endSize=24;html=1;rounded=0;" parent="1" source="1DiMr5vrjVzIFSd2x-K9-137" target="1DiMr5vrjVzIFSd2x-K9-131" edge="1">
          <mxGeometry width="160" relative="1" as="geometry">
            <mxPoint x="780.5" y="1695" as="sourcePoint" />
            <mxPoint x="780.5" y="1630" as="targetPoint" />
          </mxGeometry>
        </mxCell>
        <mxCell id="1DiMr5vrjVzIFSd2x-K9-174" value="" style="endArrow=diamondThin;endFill=0;endSize=24;html=1;rounded=0;" parent="1" source="1DiMr5vrjVzIFSd2x-K9-131" target="1DiMr5vrjVzIFSd2x-K9-130" edge="1">
          <mxGeometry width="160" relative="1" as="geometry">
            <mxPoint x="690.5" y="1440" as="sourcePoint" />
            <mxPoint x="690.5" y="1380" as="targetPoint" />
          </mxGeometry>
        </mxCell>
        <mxCell id="1DiMr5vrjVzIFSd2x-K9-176" value="" style="endArrow=open;endFill=1;endSize=12;html=1;rounded=0;" parent="1" source="1DiMr5vrjVzIFSd2x-K9-130" target="1DiMr5vrjVzIFSd2x-K9-129" edge="1">
          <mxGeometry width="160" relative="1" as="geometry">
            <mxPoint x="570" y="1810" as="sourcePoint" />
            <mxPoint x="730" y="1810" as="targetPoint" />
          </mxGeometry>
        </mxCell>
        <mxCell id="1DiMr5vrjVzIFSd2x-K9-177" value="" style="endArrow=open;endFill=1;endSize=12;html=1;rounded=0;" parent="1" source="1DiMr5vrjVzIFSd2x-K9-130" target="1DiMr5vrjVzIFSd2x-K9-121" edge="1">
          <mxGeometry width="160" relative="1" as="geometry">
            <mxPoint x="640" y="1330" as="sourcePoint" />
            <mxPoint x="800" y="1330" as="targetPoint" />
          </mxGeometry>
        </mxCell>
        <mxCell id="1DiMr5vrjVzIFSd2x-K9-178" value="" style="endArrow=diamondThin;endFill=0;endSize=24;html=1;rounded=0;" parent="1" source="1DiMr5vrjVzIFSd2x-K9-136" target="1DiMr5vrjVzIFSd2x-K9-121" edge="1">
          <mxGeometry width="160" relative="1" as="geometry">
            <mxPoint x="1360.5" y="1250" as="sourcePoint" />
            <mxPoint x="1430" y="1230" as="targetPoint" />
          </mxGeometry>
        </mxCell>
        <mxCell id="1DiMr5vrjVzIFSd2x-K9-181" value="" style="endArrow=open;endFill=1;endSize=12;html=1;rounded=0;" parent="1" source="1DiMr5vrjVzIFSd2x-K9-136" target="1DiMr5vrjVzIFSd2x-K9-132" edge="1">
          <mxGeometry width="160" relative="1" as="geometry">
            <mxPoint x="1500" y="1380" as="sourcePoint" />
            <mxPoint x="1660" y="1380" as="targetPoint" />
          </mxGeometry>
        </mxCell>
        <mxCell id="1DiMr5vrjVzIFSd2x-K9-182" value="" style="endArrow=open;endFill=1;endSize=12;html=1;rounded=0;" parent="1" source="1DiMr5vrjVzIFSd2x-K9-130" target="1DiMr5vrjVzIFSd2x-K9-120" edge="1">
          <mxGeometry width="160" relative="1" as="geometry">
            <mxPoint x="320" y="1730" as="sourcePoint" />
            <mxPoint x="480" y="1730" as="targetPoint" />
          </mxGeometry>
        </mxCell>
        <mxCell id="1DiMr5vrjVzIFSd2x-K9-184" value="&lt;p style=&quot;margin:0px;margin-top:4px;text-align:center;text-decoration:underline;&quot;&gt;&lt;b&gt;Enum ObsType&lt;/b&gt;&lt;/p&gt;&lt;hr size=&quot;1&quot; style=&quot;border-style:solid;&quot;&gt;&lt;p style=&quot;margin:0px;margin-left:8px;&quot;&gt;Routine&lt;br&gt;Seasonal&lt;br&gt;Monitor&lt;/p&gt;&lt;p style=&quot;margin:0px;margin-left:8px;&quot;&gt;Opportunistic&lt;/p&gt;&lt;p style=&quot;margin:0px;margin-left:8px;&quot;&gt;FollowUp&lt;/p&gt;&lt;p style=&quot;margin:0px;margin-left:8px;&quot;&gt;AlertResponse&lt;/p&gt;&lt;p style=&quot;margin:0px;margin-left:8px;&quot;&gt;&lt;br&gt;&lt;/p&gt;&lt;p style=&quot;margin:0px;margin-left:8px;&quot;&gt;&lt;br&gt;&lt;/p&gt;" style="verticalAlign=top;align=left;overflow=fill;html=1;whiteSpace=wrap;" parent="1" vertex="1">
          <mxGeometry x="1690" y="1220" width="160" height="150" as="geometry" />
        </mxCell>
        <mxCell id="1DiMr5vrjVzIFSd2x-K9-185" value="&lt;p style=&quot;margin:0px;margin-top:4px;text-align:center;text-decoration:underline;&quot;&gt;&lt;b&gt;Enum StationType&lt;/b&gt;&lt;/p&gt;&lt;hr size=&quot;1&quot; style=&quot;border-style:solid;&quot;&gt;&lt;p style=&quot;margin:0px;margin-left:8px;&quot;&gt;None&lt;/p&gt;&lt;p style=&quot;margin:0px;margin-left:8px;&quot;&gt;Fenced&lt;/p&gt;&lt;p style=&quot;margin:0px;margin-left:8px;&quot;&gt;Dome&amp;nbsp;&lt;/p&gt;&lt;p style=&quot;margin:0px;margin-left:8px;&quot;&gt;Roll-off&lt;/p&gt;&lt;p style=&quot;margin:0px;margin-left:8px;&quot;&gt;&lt;br&gt;&lt;/p&gt;" style="verticalAlign=top;align=left;overflow=fill;html=1;whiteSpace=wrap;" parent="1" vertex="1">
          <mxGeometry x="490" y="1770" width="160" height="150" as="geometry" />
        </mxCell>
        <mxCell id="1DiMr5vrjVzIFSd2x-K9-188" value="Use" style="endArrow=open;endSize=12;dashed=1;html=1;rounded=0;" parent="1" source="1DiMr5vrjVzIFSd2x-K9-128" target="1DiMr5vrjVzIFSd2x-K9-194" edge="1">
          <mxGeometry width="160" relative="1" as="geometry">
            <mxPoint x="762.61" y="2190" as="sourcePoint" />
            <mxPoint x="738.61" y="2255" as="targetPoint" />
          </mxGeometry>
        </mxCell>
        <mxCell id="1DiMr5vrjVzIFSd2x-K9-229" value="0..N" style="edgeLabel;html=1;align=center;verticalAlign=middle;resizable=0;points=[];" parent="1DiMr5vrjVzIFSd2x-K9-188" vertex="1" connectable="0">
          <mxGeometry x="-0.4287" y="2" relative="1" as="geometry">
            <mxPoint as="offset" />
          </mxGeometry>
        </mxCell>
        <mxCell id="1DiMr5vrjVzIFSd2x-K9-189" value="Use" style="endArrow=open;endSize=12;dashed=1;html=1;rounded=0;" parent="1" source="1DiMr5vrjVzIFSd2x-K9-137" target="1DiMr5vrjVzIFSd2x-K9-194" edge="1">
          <mxGeometry width="160" relative="1" as="geometry">
            <mxPoint x="440.5" y="1999.71" as="sourcePoint" />
            <mxPoint x="296.5" y="2134.71" as="targetPoint" />
          </mxGeometry>
        </mxCell>
        <mxCell id="1DiMr5vrjVzIFSd2x-K9-190" value="Use" style="endArrow=open;endSize=12;dashed=1;html=1;rounded=0;" parent="1" source="1DiMr5vrjVzIFSd2x-K9-122" target="1DiMr5vrjVzIFSd2x-K9-193" edge="1">
          <mxGeometry width="160" relative="1" as="geometry">
            <mxPoint x="1933.15" y="2133" as="sourcePoint" />
            <mxPoint x="1850.15" y="2240" as="targetPoint" />
          </mxGeometry>
        </mxCell>
        <mxCell id="1DiMr5vrjVzIFSd2x-K9-226" value="0..1" style="edgeLabel;html=1;align=center;verticalAlign=middle;resizable=0;points=[];" parent="1DiMr5vrjVzIFSd2x-K9-190" vertex="1" connectable="0">
          <mxGeometry x="-0.5061" relative="1" as="geometry">
            <mxPoint as="offset" />
          </mxGeometry>
        </mxCell>
        <mxCell id="1DiMr5vrjVzIFSd2x-K9-191" value="Use" style="endArrow=open;endSize=12;dashed=1;html=1;rounded=0;" parent="1" source="1DiMr5vrjVzIFSd2x-K9-139" target="1DiMr5vrjVzIFSd2x-K9-124" edge="1">
          <mxGeometry width="160" relative="1" as="geometry">
            <mxPoint x="2201.5" y="2133" as="sourcePoint" />
            <mxPoint x="2118.5" y="2240" as="targetPoint" />
          </mxGeometry>
        </mxCell>
        <mxCell id="1DiMr5vrjVzIFSd2x-K9-212" value="1..1" style="edgeLabel;html=1;align=center;verticalAlign=middle;resizable=0;points=[];" parent="1DiMr5vrjVzIFSd2x-K9-191" vertex="1" connectable="0">
          <mxGeometry x="-0.4305" y="2" relative="1" as="geometry">
            <mxPoint as="offset" />
          </mxGeometry>
        </mxCell>
        <mxCell id="1DiMr5vrjVzIFSd2x-K9-192" value="Use" style="endArrow=open;endSize=12;dashed=1;html=1;rounded=0;" parent="1" source="1DiMr5vrjVzIFSd2x-K9-139" target="1DiMr5vrjVzIFSd2x-K9-123" edge="1">
          <mxGeometry width="160" relative="1" as="geometry">
            <mxPoint x="2153" y="2133" as="sourcePoint" />
            <mxPoint x="2070" y="2240" as="targetPoint" />
          </mxGeometry>
        </mxCell>
        <mxCell id="1DiMr5vrjVzIFSd2x-K9-211" value="1..1" style="edgeLabel;html=1;align=center;verticalAlign=middle;resizable=0;points=[];" parent="1DiMr5vrjVzIFSd2x-K9-192" vertex="1" connectable="0">
          <mxGeometry x="-0.4278" y="-1" relative="1" as="geometry">
            <mxPoint as="offset" />
          </mxGeometry>
        </mxCell>
        <mxCell id="1DiMr5vrjVzIFSd2x-K9-193" value="&lt;p style=&quot;margin:0px;margin-top:4px;text-align:center;&quot;&gt;&lt;b&gt;DewHeater&lt;/b&gt;&lt;/p&gt;&lt;hr size=&quot;1&quot; style=&quot;border-style:solid;&quot;&gt;&lt;p style=&quot;margin:0px;margin-left:4px;&quot;&gt;+ Name: String&lt;/p&gt;&lt;p style=&quot;margin:0px;margin-left:4px;&quot;&gt;+ hostname: FQDN&lt;/p&gt;&lt;p style=&quot;margin:0px;margin-left:4px;&quot;&gt;+ protocol: string&lt;/p&gt;&lt;p style=&quot;margin:0px;margin-left:4px;&quot;&gt;+ port: integer&lt;/p&gt;&lt;p style=&quot;margin:0px;margin-left:4px;&quot;&gt;+ powerLevel:integer&lt;/p&gt;&lt;p style=&quot;margin:0px;margin-left:4px;&quot;&gt;+ powerOn:boolean&lt;/p&gt;&lt;p style=&quot;margin:0px;margin-left:4px;&quot;&gt;+ useConditions:boolean&lt;/p&gt;&lt;hr size=&quot;1&quot; style=&quot;border-style:solid;&quot;&gt;&lt;p style=&quot;margin:0px;margin-left:4px;&quot;&gt;+ setPowerLevel(): nul&lt;/p&gt;&lt;p style=&quot;margin:0px;margin-left:4px;&quot;&gt;+ getPowerLevel( ) : integer&lt;/p&gt;&lt;p style=&quot;margin:0px;margin-left:4px;&quot;&gt;+getPower(): boolean&lt;/p&gt;&lt;p style=&quot;margin:0px;margin-left:4px;&quot;&gt;&lt;br&gt;&lt;/p&gt;" style="verticalAlign=top;align=left;overflow=fill;html=1;whiteSpace=wrap;" parent="1" vertex="1">
          <mxGeometry x="1509" y="2320" width="160" height="210" as="geometry" />
        </mxCell>
        <mxCell id="1DiMr5vrjVzIFSd2x-K9-194" value="&lt;p style=&quot;margin:0px;margin-top:4px;text-align:center;&quot;&gt;&lt;b&gt;Switch&lt;/b&gt;&lt;/p&gt;&lt;hr size=&quot;1&quot; style=&quot;border-style:solid;&quot;&gt;&lt;p style=&quot;margin:0px;margin-left:4px;&quot;&gt;+ field: Type&lt;/p&gt;&lt;p style=&quot;margin: 0px 0px 0px 4px;&quot;&gt;+ Name: String&lt;/p&gt;&lt;p style=&quot;margin: 0px 0px 0px 4px;&quot;&gt;+ hostname: FQDN&lt;/p&gt;&lt;p style=&quot;margin: 0px 0px 0px 4px;&quot;&gt;+ protocol: string&lt;/p&gt;&lt;p style=&quot;margin: 0px 0px 0px 4px;&quot;&gt;+ port: integer&lt;/p&gt;&lt;hr size=&quot;1&quot; style=&quot;border-style:solid;&quot;&gt;&lt;p style=&quot;margin:0px;margin-left:4px;&quot;&gt;+ method(): Type&lt;/p&gt;" style="verticalAlign=top;align=left;overflow=fill;html=1;whiteSpace=wrap;" parent="1" vertex="1">
          <mxGeometry x="590" y="2315" width="160" height="220" as="geometry" />
        </mxCell>
        <mxCell id="1DiMr5vrjVzIFSd2x-K9-195" value="" style="endArrow=open;endFill=1;endSize=12;html=1;rounded=0;" parent="1" source="1DiMr5vrjVzIFSd2x-K9-136" target="1DiMr5vrjVzIFSd2x-K9-184" edge="1">
          <mxGeometry width="160" relative="1" as="geometry">
            <mxPoint x="1560" y="1340.5" as="sourcePoint" />
            <mxPoint x="1640" y="1347.5" as="targetPoint" />
          </mxGeometry>
        </mxCell>
        <mxCell id="1DiMr5vrjVzIFSd2x-K9-196" value="&lt;p style=&quot;margin:0px;margin-top:4px;text-align:center;&quot;&gt;&lt;b&gt;UI&lt;/b&gt;&lt;/p&gt;&lt;hr size=&quot;1&quot; style=&quot;border-style:solid;&quot;&gt;&lt;p style=&quot;margin:0px;margin-left:4px;&quot;&gt;+ Name: string&lt;/p&gt;&lt;p style=&quot;margin:0px;margin-left:4px;&quot;&gt;+ Domain: string&lt;/p&gt;&lt;p style=&quot;margin:0px;margin-left:4px;&quot;&gt;+ AccessPattern: net filter&lt;/p&gt;&lt;p style=&quot;margin:0px;margin-left:4px;&quot;&gt;+ hostname:&amp;nbsp;&lt;/p&gt;&lt;p style=&quot;margin:0px;margin-left:4px;&quot;&gt;&lt;br&gt;&lt;/p&gt;&lt;hr size=&quot;1&quot; style=&quot;border-style:solid;&quot;&gt;&lt;p style=&quot;margin:0px;margin-left:4px;&quot;&gt;&lt;span style=&quot;background-color: initial;&quot;&gt;+&amp;nbsp;&lt;/span&gt;&lt;/p&gt;" style="verticalAlign=top;align=left;overflow=fill;html=1;whiteSpace=wrap;" parent="1" vertex="1">
          <mxGeometry x="740" y="1560" width="160" height="190" as="geometry" />
        </mxCell>
        <mxCell id="1DiMr5vrjVzIFSd2x-K9-198" value="&lt;p style=&quot;margin:0px;margin-top:4px;text-align:center;&quot;&gt;&lt;i&gt;&amp;lt;&amp;lt;Interface&amp;gt;&amp;gt;&lt;/i&gt;&lt;br&gt;&lt;b&gt;PhD2&lt;/b&gt;&lt;/p&gt;&lt;hr size=&quot;1&quot; style=&quot;border-style:solid;&quot;&gt;&lt;p style=&quot;margin:0px;margin-left:4px;&quot;&gt;+ Name: string&lt;br&gt;+ hostname: Type&lt;/p&gt;&lt;p style=&quot;margin:0px;margin-left:4px;&quot;&gt;+ port:&amp;nbsp;&lt;/p&gt;&lt;p style=&quot;margin:0px;margin-left:4px;&quot;&gt;+ protocol:&lt;/p&gt;&lt;p style=&quot;margin:0px;margin-left:4px;&quot;&gt;+ profileName: string&lt;/p&gt;&lt;p style=&quot;margin:0px;margin-left:4px;&quot;&gt;&lt;br&gt;&lt;/p&gt;&lt;hr size=&quot;1&quot; style=&quot;border-style:solid;&quot;&gt;&lt;p style=&quot;margin:0px;margin-left:4px;&quot;&gt;+ method1(Type): Type&lt;br&gt;+ method2(Type, Type): Type&lt;/p&gt;" style="verticalAlign=top;align=left;overflow=fill;html=1;whiteSpace=wrap;" parent="1" vertex="1">
          <mxGeometry x="2240" y="2715" width="190" height="290" as="geometry" />
        </mxCell>
        <mxCell id="1DiMr5vrjVzIFSd2x-K9-199" value="&lt;p style=&quot;margin:0px;margin-top:4px;text-align:center;&quot;&gt;&lt;i&gt;&amp;lt;&amp;lt;Interface&amp;gt;&amp;gt;&lt;/i&gt;&lt;br&gt;&lt;b&gt;Planetarium::CdC&lt;/b&gt;&lt;/p&gt;&lt;hr size=&quot;1&quot; style=&quot;border-style:solid;&quot;&gt;&lt;p style=&quot;margin:0px;margin-left:4px;&quot;&gt;+ Name: string&lt;br&gt;+ hostname: string&lt;/p&gt;&lt;p style=&quot;margin:0px;margin-left:4px;&quot;&gt;+ port: integer&lt;/p&gt;&lt;p style=&quot;margin:0px;margin-left:4px;&quot;&gt;+ protocol: string&lt;/p&gt;&lt;p style=&quot;margin:0px;margin-left:4px;&quot;&gt;+ supported: List&amp;lt;String names&amp;gt;&lt;/p&gt;&lt;p style=&quot;margin:0px;margin-left:4px;&quot;&gt;&lt;br&gt;&lt;/p&gt;&lt;hr size=&quot;1&quot; style=&quot;border-style:solid;&quot;&gt;&lt;p style=&quot;margin:0px;margin-left:4px;&quot;&gt;+ method1(Type): Type&lt;br&gt;+ method2(Type, Type): Type&lt;/p&gt;" style="verticalAlign=top;align=left;overflow=fill;html=1;whiteSpace=wrap;" parent="1" vertex="1">
          <mxGeometry x="1750" y="2710" width="190" height="190" as="geometry" />
        </mxCell>
        <mxCell id="1DiMr5vrjVzIFSd2x-K9-200" value="&lt;p style=&quot;margin:0px;margin-top:4px;text-align:center;&quot;&gt;&lt;b&gt;Guider&lt;/b&gt;&lt;/p&gt;&lt;hr size=&quot;1&quot; style=&quot;border-style:solid;&quot;&gt;&lt;p style=&quot;margin:0px;margin-left:4px;&quot;&gt;+ field: Type&lt;/p&gt;&lt;hr size=&quot;1&quot; style=&quot;border-style:solid;&quot;&gt;&lt;p style=&quot;margin:0px;margin-left:4px;&quot;&gt;+ Calibrate():&lt;/p&gt;&lt;p style=&quot;margin:0px;margin-left:4px;&quot;&gt;+ selectGuideStar()&lt;/p&gt;&lt;p style=&quot;margin:0px;margin-left:4px;&quot;&gt;+ startGuiding()&lt;/p&gt;&lt;p style=&quot;margin:0px;margin-left:4px;&quot;&gt;+ stopGuiding()&lt;/p&gt;&lt;p style=&quot;margin:0px;margin-left:4px;&quot;&gt;&lt;br&gt;&lt;/p&gt;" style="verticalAlign=top;align=left;overflow=fill;html=1;whiteSpace=wrap;" parent="1" vertex="1">
          <mxGeometry x="2270" y="2320" width="160" height="220" as="geometry" />
        </mxCell>
        <mxCell id="1DiMr5vrjVzIFSd2x-K9-201" value="" style="endArrow=block;dashed=1;endFill=0;endSize=12;html=1;rounded=0;edgeStyle=orthogonalEdgeStyle;" parent="1" source="1DiMr5vrjVzIFSd2x-K9-200" target="1DiMr5vrjVzIFSd2x-K9-198" edge="1">
          <mxGeometry width="160" relative="1" as="geometry">
            <mxPoint x="2413" y="2380" as="sourcePoint" />
            <mxPoint x="2220" y="2610" as="targetPoint" />
            <Array as="points">
              <mxPoint x="2413" y="2540" />
              <mxPoint x="2480" y="2540" />
            </Array>
          </mxGeometry>
        </mxCell>
        <mxCell id="1DiMr5vrjVzIFSd2x-K9-202" value="Use" style="endArrow=open;endSize=12;dashed=1;html=1;rounded=0;" parent="1" source="1DiMr5vrjVzIFSd2x-K9-139" target="1DiMr5vrjVzIFSd2x-K9-200" edge="1">
          <mxGeometry width="160" relative="1" as="geometry">
            <mxPoint x="2060.5" y="2180.03" as="sourcePoint" />
            <mxPoint x="2138.5" y="2284.03" as="targetPoint" />
          </mxGeometry>
        </mxCell>
        <mxCell id="1DiMr5vrjVzIFSd2x-K9-214" value="0..1" style="edgeLabel;html=1;align=center;verticalAlign=middle;resizable=0;points=[];" parent="1DiMr5vrjVzIFSd2x-K9-202" vertex="1" connectable="0">
          <mxGeometry x="0.3478" y="-1" relative="1" as="geometry">
            <mxPoint as="offset" />
          </mxGeometry>
        </mxCell>
        <mxCell id="1DiMr5vrjVzIFSd2x-K9-203" value="" style="endArrow=block;dashed=1;endFill=0;endSize=12;html=1;rounded=0;" parent="1" source="1DiMr5vrjVzIFSd2x-K9-196" target="1DiMr5vrjVzIFSd2x-K9-130" edge="1">
          <mxGeometry width="160" relative="1" as="geometry">
            <mxPoint x="750" y="1550" as="sourcePoint" />
            <mxPoint x="910" y="1550" as="targetPoint" />
          </mxGeometry>
        </mxCell>
        <mxCell id="1DiMr5vrjVzIFSd2x-K9-204" value="" style="endArrow=open;endFill=1;endSize=12;html=1;rounded=0;" parent="1" source="1DiMr5vrjVzIFSd2x-K9-137" target="1DiMr5vrjVzIFSd2x-K9-185" edge="1">
          <mxGeometry width="160" relative="1" as="geometry">
            <mxPoint x="380" y="1640" as="sourcePoint" />
            <mxPoint x="540" y="1640" as="targetPoint" />
          </mxGeometry>
        </mxCell>
        <mxCell id="1DiMr5vrjVzIFSd2x-K9-205" value="" style="endArrow=open;endFill=1;endSize=12;html=1;rounded=0;" parent="1" source="1DiMr5vrjVzIFSd2x-K9-128" target="1DiMr5vrjVzIFSd2x-K9-166" edge="1">
          <mxGeometry width="160" relative="1" as="geometry">
            <mxPoint x="640" y="2120" as="sourcePoint" />
            <mxPoint x="800" y="2120" as="targetPoint" />
          </mxGeometry>
        </mxCell>
        <mxCell id="1DiMr5vrjVzIFSd2x-K9-206" value="" style="endArrow=block;dashed=1;endFill=0;endSize=12;html=1;rounded=0;edgeStyle=orthogonalEdgeStyle;" parent="1" source="1DiMr5vrjVzIFSd2x-K9-140" target="1DiMr5vrjVzIFSd2x-K9-138" edge="1">
          <mxGeometry width="160" relative="1" as="geometry">
            <mxPoint x="1333" y="2440" as="sourcePoint" />
            <mxPoint x="1140" y="2670" as="targetPoint" />
            <Array as="points">
              <mxPoint x="1400" y="2680" />
              <mxPoint x="1455" y="2680" />
            </Array>
          </mxGeometry>
        </mxCell>
        <mxCell id="1DiMr5vrjVzIFSd2x-K9-207" value="&lt;p style=&quot;margin:0px;margin-top:4px;text-align:center;&quot;&gt;&lt;b&gt;FlatFielder&lt;/b&gt;&lt;/p&gt;&lt;hr size=&quot;1&quot; style=&quot;border-style:solid;&quot;&gt;&lt;p style=&quot;margin:0px;margin-left:4px;&quot;&gt;+ field: Type&lt;/p&gt;&lt;hr size=&quot;1&quot; style=&quot;border-style:solid;&quot;&gt;&lt;p style=&quot;margin:0px;margin-left:4px;&quot;&gt;+ method(): Type&lt;/p&gt;" style="verticalAlign=top;align=left;overflow=fill;html=1;whiteSpace=wrap;" parent="1" vertex="1">
          <mxGeometry x="390" y="2315" width="160" height="90" as="geometry" />
        </mxCell>
        <mxCell id="1DiMr5vrjVzIFSd2x-K9-208" value="Use" style="endArrow=open;endSize=12;dashed=1;html=1;rounded=0;" parent="1" source="1DiMr5vrjVzIFSd2x-K9-137" target="1DiMr5vrjVzIFSd2x-K9-207" edge="1">
          <mxGeometry width="160" relative="1" as="geometry">
            <mxPoint x="643.74" y="1789.66" as="sourcePoint" />
            <mxPoint x="469.74" y="1933.66" as="targetPoint" />
          </mxGeometry>
        </mxCell>
        <mxCell id="1DiMr5vrjVzIFSd2x-K9-215" value="An OAG or ONAG would be two ports - each with a camera, but only 1 set for guiding.&amp;nbsp;" style="text;html=1;align=center;verticalAlign=middle;whiteSpace=wrap;rounded=0;" parent="1" vertex="1">
          <mxGeometry x="2060" y="1980" width="140" height="30" as="geometry" />
        </mxCell>
        <mxCell id="1DiMr5vrjVzIFSd2x-K9-217" value="There can be multiple OTAs per mount, of different types and sizes" style="text;html=1;align=center;verticalAlign=middle;whiteSpace=wrap;rounded=0;" parent="1" vertex="1">
          <mxGeometry x="1517.5" y="1970" width="140" height="30" as="geometry" />
        </mxCell>
        <mxCell id="1DiMr5vrjVzIFSd2x-K9-218" value="There can be multiple stations per site with meteo, observing conditions and flat-fielding services at the&amp;nbsp; station level.&amp;nbsp;" style="text;html=1;align=center;verticalAlign=middle;whiteSpace=wrap;rounded=0;" parent="1" vertex="1">
          <mxGeometry x="760" y="1970" width="140" height="100" as="geometry" />
        </mxCell>
        <mxCell id="1DiMr5vrjVzIFSd2x-K9-221" value="The site represents&amp;nbsp; a container location of observing facilities.&amp;nbsp;" style="text;html=1;align=center;verticalAlign=middle;whiteSpace=wrap;rounded=0;" parent="1" vertex="1">
          <mxGeometry x="460" y="2000" width="140" height="65" as="geometry" />
        </mxCell>
        <mxCell id="1DiMr5vrjVzIFSd2x-K9-222" value="There can be multiple mounts per station, carrying a number of OTAs.&amp;nbsp;" style="text;html=1;align=center;verticalAlign=middle;whiteSpace=wrap;rounded=0;" parent="1" vertex="1">
          <mxGeometry x="1120" y="1960" width="140" height="100" as="geometry" />
        </mxCell>
        <mxCell id="1DiMr5vrjVzIFSd2x-K9-223" value="Observing Item with characteristics to schedule.&amp;nbsp;&amp;nbsp;" style="text;html=1;align=center;verticalAlign=middle;whiteSpace=wrap;rounded=0;" parent="1" vertex="1">
          <mxGeometry x="1517.5" y="1250" width="170" height="100" as="geometry" />
        </mxCell>
        <mxCell id="1DiMr5vrjVzIFSd2x-K9-224" value="working schedule across all observables.&amp;nbsp;" style="text;html=1;align=center;verticalAlign=middle;whiteSpace=wrap;rounded=0;" parent="1" vertex="1">
          <mxGeometry x="1050" y="1275" width="170" height="100" as="geometry" />
        </mxCell>
        <mxCell id="1DiMr5vrjVzIFSd2x-K9-230" value="" style="endArrow=diamondThin;endFill=0;endSize=24;html=1;rounded=0;" parent="1" source="1DiMr5vrjVzIFSd2x-K9-125" edge="1">
          <mxGeometry width="160" relative="1" as="geometry">
            <mxPoint x="1970" y="2590" as="sourcePoint" />
            <mxPoint x="1970" y="2540" as="targetPoint" />
          </mxGeometry>
        </mxCell>
        <mxCell id="1DiMr5vrjVzIFSd2x-K9-231" value="0..1" style="edgeLabel;html=1;align=center;verticalAlign=middle;resizable=0;points=[];" parent="1DiMr5vrjVzIFSd2x-K9-230" vertex="1" connectable="0">
          <mxGeometry x="-0.2954" y="-2" relative="1" as="geometry">
            <mxPoint as="offset" />
          </mxGeometry>
        </mxCell>
        <mxCell id="1DiMr5vrjVzIFSd2x-K9-233" value="&lt;p style=&quot;margin:0px;margin-top:4px;text-align:center;&quot;&gt;&lt;i&gt;&amp;lt;&amp;lt;Interface&amp;gt;&amp;gt;&lt;/i&gt;&lt;br&gt;&lt;b&gt;Planetarium::Starry&lt;/b&gt;&lt;/p&gt;&lt;hr size=&quot;1&quot; style=&quot;border-style:solid;&quot;&gt;&lt;p style=&quot;margin:0px;margin-left:4px;&quot;&gt;+ Name: string&lt;br&gt;+ hostname: string&lt;/p&gt;&lt;p style=&quot;margin:0px;margin-left:4px;&quot;&gt;+ port: integer&lt;/p&gt;&lt;p style=&quot;margin:0px;margin-left:4px;&quot;&gt;+ protocol: string&lt;/p&gt;&lt;p style=&quot;margin:0px;margin-left:4px;&quot;&gt;+ supported: List&amp;lt;String names&amp;gt;&lt;/p&gt;&lt;p style=&quot;margin:0px;margin-left:4px;&quot;&gt;&lt;br&gt;&lt;/p&gt;&lt;hr size=&quot;1&quot; style=&quot;border-style:solid;&quot;&gt;&lt;p style=&quot;margin:0px;margin-left:4px;&quot;&gt;+ method1(Type): Type&lt;br&gt;+ method2(Type, Type): Type&lt;/p&gt;" style="verticalAlign=top;align=left;overflow=fill;html=1;whiteSpace=wrap;" parent="1" vertex="1">
          <mxGeometry x="1990" y="2710" width="190" height="190" as="geometry" />
        </mxCell>
      </root>
    </mxGraphModel>
  </diagram>
</mxfile>
